<mxfile host="app.diagrams.net" modified="2021-06-11T07:06:01.994Z" agent="5.0 (Macintosh; Intel Mac OS X 10_13_6) AppleWebKit/537.36 (KHTML, like Gecko) Chrome/90.0.4430.212 Safari/537.36" etag="93e2R7cdRrZFB2ZLST6O" version="14.7.7" type="github">
  <diagram id="VdLfaRIdaGldhcj8oe8U" name="第 1 页">
    <mxGraphModel dx="946" dy="1046" grid="0" gridSize="10" guides="1" tooltips="1" connect="1" arrows="1" fold="1" page="0" pageScale="1" pageWidth="827" pageHeight="1169" math="0" shadow="0">
      <root>
        <mxCell id="0" />
        <mxCell id="1" parent="0" />
        <mxCell id="ZK_xEVp3yDhIZiveL2If-50" value="" style="rounded=0;whiteSpace=wrap;html=1;comic=1;fontFamily=Comic Sans MS;fontSize=16;fillColor=#f5f5f5;strokeColor=#666666;fontColor=#333333;" vertex="1" parent="1">
          <mxGeometry x="94.63" y="465" width="745.37" height="361" as="geometry" />
        </mxCell>
        <mxCell id="ZK_xEVp3yDhIZiveL2If-51" value="地图" style="rounded=0;whiteSpace=wrap;html=1;comic=1;fillColor=#dae8fc;strokeColor=#6c8ebf;fontSize=16;fontFamily=Comic Sans MS;" vertex="1" parent="1">
          <mxGeometry x="128" y="496" width="120" height="60" as="geometry" />
        </mxCell>
        <mxCell id="ZK_xEVp3yDhIZiveL2If-52" value="基础库" style="text;html=1;strokeColor=none;fillColor=none;align=center;verticalAlign=middle;whiteSpace=wrap;rounded=0;comic=1;fontFamily=Comic Sans MS;fontSize=16;fontStyle=1" vertex="1" parent="1">
          <mxGeometry x="21" y="618" width="58" height="20" as="geometry" />
        </mxCell>
        <mxCell id="ZK_xEVp3yDhIZiveL2If-53" value="数据层" style="text;html=1;strokeColor=none;fillColor=none;align=center;verticalAlign=middle;whiteSpace=wrap;rounded=0;comic=1;fontFamily=Comic Sans MS;fontSize=16;fontStyle=1" vertex="1" parent="1">
          <mxGeometry x="24" y="365" width="52" height="20" as="geometry" />
        </mxCell>
        <mxCell id="ZK_xEVp3yDhIZiveL2If-54" value="" style="rounded=0;whiteSpace=wrap;html=1;comic=1;fontFamily=Comic Sans MS;fontSize=16;fillColor=#d5e8d4;strokeColor=#82b366;" vertex="1" parent="1">
          <mxGeometry x="96" y="275" width="744" height="165" as="geometry" />
        </mxCell>
        <mxCell id="ZK_xEVp3yDhIZiveL2If-55" value="定位" style="rounded=0;whiteSpace=wrap;html=1;comic=1;fillColor=#dae8fc;strokeColor=#6c8ebf;fontSize=16;fontFamily=Comic Sans MS;" vertex="1" parent="1">
          <mxGeometry x="265" y="496" width="120" height="60" as="geometry" />
        </mxCell>
        <mxCell id="ZK_xEVp3yDhIZiveL2If-56" value="灵犀" style="rounded=0;whiteSpace=wrap;html=1;comic=1;fillColor=#dae8fc;strokeColor=#6c8ebf;fontSize=16;fontFamily=Comic Sans MS;" vertex="1" parent="1">
          <mxGeometry x="405" y="496" width="120" height="60" as="geometry" />
        </mxCell>
        <mxCell id="ZK_xEVp3yDhIZiveL2If-57" value="Logan" style="rounded=0;whiteSpace=wrap;html=1;comic=1;fillColor=#dae8fc;strokeColor=#6c8ebf;fontSize=16;fontFamily=Comic Sans MS;" vertex="1" parent="1">
          <mxGeometry x="545" y="496" width="120" height="60" as="geometry" />
        </mxCell>
        <mxCell id="ZK_xEVp3yDhIZiveL2If-58" value="Horn" style="rounded=0;whiteSpace=wrap;html=1;comic=1;fillColor=#dae8fc;strokeColor=#6c8ebf;fontSize=16;fontFamily=Comic Sans MS;" vertex="1" parent="1">
          <mxGeometry x="685" y="496" width="120" height="60" as="geometry" />
        </mxCell>
        <mxCell id="ZK_xEVp3yDhIZiveL2If-59" value="Okhttp" style="rounded=0;whiteSpace=wrap;html=1;comic=1;fillColor=#dae8fc;strokeColor=#6c8ebf;fontSize=16;fontFamily=Comic Sans MS;" vertex="1" parent="1">
          <mxGeometry x="128" y="574" width="120" height="60" as="geometry" />
        </mxCell>
        <mxCell id="ZK_xEVp3yDhIZiveL2If-60" value="CIP" style="rounded=0;whiteSpace=wrap;html=1;comic=1;fillColor=#dae8fc;strokeColor=#6c8ebf;fontSize=16;fontFamily=Comic Sans MS;" vertex="1" parent="1">
          <mxGeometry x="268" y="574" width="120" height="60" as="geometry" />
        </mxCell>
        <mxCell id="ZK_xEVp3yDhIZiveL2If-61" value="UUID" style="rounded=0;whiteSpace=wrap;html=1;comic=1;fillColor=#dae8fc;strokeColor=#6c8ebf;fontSize=16;fontFamily=Comic Sans MS;" vertex="1" parent="1">
          <mxGeometry x="407.32" y="576" width="120" height="60" as="geometry" />
        </mxCell>
        <mxCell id="ZK_xEVp3yDhIZiveL2If-62" value="ABTest" style="rounded=0;whiteSpace=wrap;html=1;comic=1;fillColor=#dae8fc;strokeColor=#6c8ebf;fontSize=16;fontFamily=Comic Sans MS;" vertex="1" parent="1">
          <mxGeometry x="545" y="576" width="120" height="60" as="geometry" />
        </mxCell>
        <mxCell id="ZK_xEVp3yDhIZiveL2If-63" value="Sniffer" style="rounded=0;whiteSpace=wrap;html=1;comic=1;fillColor=#dae8fc;strokeColor=#6c8ebf;fontSize=16;fontFamily=Comic Sans MS;" vertex="1" parent="1">
          <mxGeometry x="683" y="576" width="120" height="60" as="geometry" />
        </mxCell>
        <mxCell id="ZK_xEVp3yDhIZiveL2If-64" value="分享" style="rounded=0;whiteSpace=wrap;html=1;comic=1;fillColor=#dae8fc;strokeColor=#6c8ebf;fontSize=16;fontFamily=Comic Sans MS;" vertex="1" parent="1">
          <mxGeometry x="128" y="652" width="120" height="60" as="geometry" />
        </mxCell>
        <mxCell id="ZK_xEVp3yDhIZiveL2If-65" value="图片" style="rounded=0;whiteSpace=wrap;html=1;comic=1;fillColor=#dae8fc;strokeColor=#6c8ebf;fontSize=16;fontFamily=Comic Sans MS;" vertex="1" parent="1">
          <mxGeometry x="268" y="652" width="120" height="60" as="geometry" />
        </mxCell>
        <mxCell id="ZK_xEVp3yDhIZiveL2If-66" value="MRN" style="rounded=0;whiteSpace=wrap;html=1;comic=1;fillColor=#dae8fc;strokeColor=#6c8ebf;fontSize=16;fontFamily=Comic Sans MS;" vertex="1" parent="1">
          <mxGeometry x="407.32" y="652" width="120" height="60" as="geometry" />
        </mxCell>
        <mxCell id="ZK_xEVp3yDhIZiveL2If-67" value="账号" style="rounded=0;whiteSpace=wrap;html=1;comic=1;fillColor=#dae8fc;strokeColor=#6c8ebf;fontSize=16;fontFamily=Comic Sans MS;" vertex="1" parent="1">
          <mxGeometry x="545" y="652" width="120" height="60" as="geometry" />
        </mxCell>
        <mxCell id="ZK_xEVp3yDhIZiveL2If-68" value="Lottie" style="rounded=0;whiteSpace=wrap;html=1;comic=1;fillColor=#dae8fc;strokeColor=#6c8ebf;fontSize=16;fontFamily=Comic Sans MS;" vertex="1" parent="1">
          <mxGeometry x="683" y="652" width="120" height="60" as="geometry" />
        </mxCell>
        <mxCell id="ZK_xEVp3yDhIZiveL2If-69" value="崩溃采集" style="rounded=0;whiteSpace=wrap;html=1;comic=1;fillColor=#dae8fc;strokeColor=#6c8ebf;fontSize=16;fontFamily=Comic Sans MS;" vertex="1" parent="1">
          <mxGeometry x="128" y="730" width="120" height="60" as="geometry" />
        </mxCell>
        <mxCell id="ZK_xEVp3yDhIZiveL2If-70" value="Raptor" style="rounded=0;whiteSpace=wrap;html=1;comic=1;fillColor=#dae8fc;strokeColor=#6c8ebf;fontSize=16;fontFamily=Comic Sans MS;" vertex="1" parent="1">
          <mxGeometry x="268" y="730" width="120" height="60" as="geometry" />
        </mxCell>
        <mxCell id="ZK_xEVp3yDhIZiveL2If-71" value="Retrofit" style="rounded=0;whiteSpace=wrap;html=1;comic=1;fillColor=#dae8fc;strokeColor=#6c8ebf;fontSize=16;fontFamily=Comic Sans MS;" vertex="1" parent="1">
          <mxGeometry x="407.32" y="728" width="120" height="60" as="geometry" />
        </mxCell>
        <mxCell id="ZK_xEVp3yDhIZiveL2If-72" value="KNB" style="rounded=0;whiteSpace=wrap;html=1;comic=1;fillColor=#dae8fc;strokeColor=#6c8ebf;fontSize=16;fontFamily=Comic Sans MS;" vertex="1" parent="1">
          <mxGeometry x="545" y="728" width="120" height="60" as="geometry" />
        </mxCell>
        <mxCell id="ZK_xEVp3yDhIZiveL2If-73" value="Rxjava" style="rounded=0;whiteSpace=wrap;html=1;comic=1;fillColor=#dae8fc;strokeColor=#6c8ebf;fontSize=16;fontFamily=Comic Sans MS;" vertex="1" parent="1">
          <mxGeometry x="683" y="728" width="120" height="60" as="geometry" />
        </mxCell>
        <mxCell id="ZK_xEVp3yDhIZiveL2If-74" value="平台大搜Service" style="rounded=0;whiteSpace=wrap;html=1;comic=1;fillColor=#f9f7ed;strokeColor=#36393d;fontSize=16;fontFamily=Comic Sans MS;" vertex="1" parent="1">
          <mxGeometry x="203" y="368" width="166" height="60" as="geometry" />
        </mxCell>
        <mxCell id="ZK_xEVp3yDhIZiveL2If-75" value="美食Service" style="rounded=0;whiteSpace=wrap;html=1;comic=1;fillColor=#f9f7ed;strokeColor=#36393d;fontSize=16;fontFamily=Comic Sans MS;" vertex="1" parent="1">
          <mxGeometry x="405" y="368" width="166" height="60" as="geometry" />
        </mxCell>
        <mxCell id="ZK_xEVp3yDhIZiveL2If-76" value="数据源" style="text;html=1;strokeColor=none;fillColor=none;align=center;verticalAlign=middle;whiteSpace=wrap;rounded=0;comic=1;fontFamily=Comic Sans MS;fontSize=16;fontStyle=1" vertex="1" parent="1">
          <mxGeometry x="113" y="388" width="50" height="20" as="geometry" />
        </mxCell>
        <mxCell id="ZK_xEVp3yDhIZiveL2If-77" value="接口层" style="text;html=1;strokeColor=none;fillColor=none;align=center;verticalAlign=middle;whiteSpace=wrap;rounded=0;comic=1;fontFamily=Comic Sans MS;fontSize=16;fontStyle=1" vertex="1" parent="1">
          <mxGeometry x="113" y="308" width="50" height="20" as="geometry" />
        </mxCell>
        <mxCell id="ZK_xEVp3yDhIZiveL2If-78" value="Facade Service" style="rounded=0;whiteSpace=wrap;html=1;comic=1;fillColor=#ffcc99;strokeColor=#36393d;fontSize=16;fontFamily=Comic Sans MS;" vertex="1" parent="1">
          <mxGeometry x="203" y="288" width="570" height="60" as="geometry" />
        </mxCell>
        <mxCell id="ZK_xEVp3yDhIZiveL2If-79" value="酒店Service" style="rounded=0;whiteSpace=wrap;html=1;comic=1;fillColor=#f9f7ed;strokeColor=#36393d;fontSize=16;fontFamily=Comic Sans MS;" vertex="1" parent="1">
          <mxGeometry x="613" y="368" width="156" height="60" as="geometry" />
        </mxCell>
        <mxCell id="ZK_xEVp3yDhIZiveL2If-80" value="" style="rounded=0;whiteSpace=wrap;html=1;comic=1;fontFamily=Comic Sans MS;fontSize=16;fillColor=#ffe6cc;strokeColor=#d79b00;" vertex="1" parent="1">
          <mxGeometry x="96" y="-4" width="744" height="258" as="geometry" />
        </mxCell>
        <mxCell id="ZK_xEVp3yDhIZiveL2If-81" value="展示层" style="text;html=1;strokeColor=none;fillColor=none;align=center;verticalAlign=middle;whiteSpace=wrap;rounded=0;comic=1;fontFamily=Comic Sans MS;fontSize=16;fontStyle=1" vertex="1" parent="1">
          <mxGeometry x="24" y="161.5" width="52" height="20" as="geometry" />
        </mxCell>
        <mxCell id="ZK_xEVp3yDhIZiveL2If-82" value="出行场景" style="rounded=0;whiteSpace=wrap;html=1;comic=1;fillColor=#f8cecc;strokeColor=#b85450;fontSize=16;fontFamily=Comic Sans MS;" vertex="1" parent="1">
          <mxGeometry x="119" y="7" width="120" height="60" as="geometry" />
        </mxCell>
        <mxCell id="ZK_xEVp3yDhIZiveL2If-83" value="出行场景" style="rounded=0;whiteSpace=wrap;html=1;comic=1;fillColor=#e1d5e7;strokeColor=#9673a6;fontSize=16;fontFamily=Comic Sans MS;dashed=1;" vertex="1" parent="1">
          <mxGeometry x="163" y="74" width="28" height="175" as="geometry" />
        </mxCell>
        <mxCell id="ZK_xEVp3yDhIZiveL2If-84" value="POI场景" style="rounded=0;whiteSpace=wrap;html=1;comic=1;fillColor=#f8cecc;strokeColor=#b85450;fontSize=16;fontFamily=Comic Sans MS;" vertex="1" parent="1">
          <mxGeometry x="265" y="7" width="120" height="60" as="geometry" />
        </mxCell>
        <mxCell id="ZK_xEVp3yDhIZiveL2If-85" value="路线场景" style="rounded=0;whiteSpace=wrap;html=1;comic=1;fillColor=#f8cecc;strokeColor=#b85450;fontSize=16;fontFamily=Comic Sans MS;" vertex="1" parent="1">
          <mxGeometry x="408" y="7" width="120" height="60" as="geometry" />
        </mxCell>
        <mxCell id="ZK_xEVp3yDhIZiveL2If-86" value="找店场景" style="rounded=0;whiteSpace=wrap;html=1;comic=1;fillColor=#f8cecc;strokeColor=#b85450;fontSize=16;fontFamily=Comic Sans MS;" vertex="1" parent="1">
          <mxGeometry x="551" y="7" width="120" height="60" as="geometry" />
        </mxCell>
        <mxCell id="ZK_xEVp3yDhIZiveL2If-87" value="搜索场景" style="rounded=0;whiteSpace=wrap;html=1;comic=1;fillColor=#f8cecc;strokeColor=#b85450;fontSize=16;fontFamily=Comic Sans MS;" vertex="1" parent="1">
          <mxGeometry x="694" y="7" width="120" height="60" as="geometry" />
        </mxCell>
        <mxCell id="ZK_xEVp3yDhIZiveL2If-88" value="POI地址页" style="rounded=0;whiteSpace=wrap;html=1;comic=1;fillColor=#e1d5e7;strokeColor=#9673a6;fontSize=16;fontFamily=Comic Sans MS;dashed=1;" vertex="1" parent="1">
          <mxGeometry x="265" y="76" width="28" height="175" as="geometry" />
        </mxCell>
        <mxCell id="ZK_xEVp3yDhIZiveL2If-89" value="地图选点页" style="rounded=0;whiteSpace=wrap;html=1;comic=1;fillColor=#e1d5e7;strokeColor=#9673a6;fontSize=16;fontFamily=Comic Sans MS;dashed=1;" vertex="1" parent="1">
          <mxGeometry x="307" y="76" width="28" height="175" as="geometry" />
        </mxCell>
        <mxCell id="ZK_xEVp3yDhIZiveL2If-90" value="猜你喜欢页" style="rounded=0;whiteSpace=wrap;html=1;comic=1;fillColor=#e1d5e7;strokeColor=#9673a6;fontSize=16;fontFamily=Comic Sans MS;dashed=1;" vertex="1" parent="1">
          <mxGeometry x="349" y="76" width="28" height="175" as="geometry" />
        </mxCell>
        <mxCell id="ZK_xEVp3yDhIZiveL2If-91" value="路线规划页" style="rounded=0;whiteSpace=wrap;html=1;comic=1;fillColor=#e1d5e7;strokeColor=#9673a6;fontSize=16;fontFamily=Comic Sans MS;dashed=1;" vertex="1" parent="1">
          <mxGeometry x="410" y="76" width="28" height="175" as="geometry" />
        </mxCell>
        <mxCell id="ZK_xEVp3yDhIZiveL2If-92" value="公交详情页" style="rounded=0;whiteSpace=wrap;html=1;comic=1;fillColor=#e1d5e7;strokeColor=#9673a6;fontSize=16;fontFamily=Comic Sans MS;dashed=1;" vertex="1" parent="1">
          <mxGeometry x="494" y="76" width="28" height="175" as="geometry" />
        </mxCell>
        <mxCell id="ZK_xEVp3yDhIZiveL2If-93" value="美食地图找点页" style="rounded=0;whiteSpace=wrap;html=1;comic=1;fillColor=#e1d5e7;strokeColor=#9673a6;fontSize=16;fontFamily=Comic Sans MS;dashed=1;" vertex="1" parent="1">
          <mxGeometry x="554" y="76" width="28" height="175" as="geometry" />
        </mxCell>
        <mxCell id="ZK_xEVp3yDhIZiveL2If-94" value="大搜地图找点页" style="rounded=0;whiteSpace=wrap;html=1;comic=1;fillColor=#e1d5e7;strokeColor=#9673a6;fontSize=16;fontFamily=Comic Sans MS;dashed=1;" vertex="1" parent="1">
          <mxGeometry x="637" y="76" width="28" height="175" as="geometry" />
        </mxCell>
        <mxCell id="ZK_xEVp3yDhIZiveL2If-95" value="单双框Sug页" style="rounded=0;whiteSpace=wrap;html=1;comic=1;fillColor=#e1d5e7;strokeColor=#9673a6;fontSize=16;fontFamily=Comic Sans MS;dashed=1;" vertex="1" parent="1">
          <mxGeometry x="698" y="76" width="28" height="175" as="geometry" />
        </mxCell>
        <mxCell id="ZK_xEVp3yDhIZiveL2If-96" value="大搜起始页" style="rounded=0;whiteSpace=wrap;html=1;comic=1;fillColor=#e1d5e7;strokeColor=#9673a6;fontSize=16;fontFamily=Comic Sans MS;dashed=1;" vertex="1" parent="1">
          <mxGeometry x="740" y="76" width="28" height="175" as="geometry" />
        </mxCell>
        <mxCell id="ZK_xEVp3yDhIZiveL2If-97" value="选择地址页" style="rounded=0;whiteSpace=wrap;html=1;comic=1;fillColor=#e1d5e7;strokeColor=#9673a6;fontSize=16;fontFamily=Comic Sans MS;dashed=1;" vertex="1" parent="1">
          <mxGeometry x="782" y="76" width="28" height="175" as="geometry" />
        </mxCell>
        <mxCell id="ZK_xEVp3yDhIZiveL2If-98" value="壳App" style="rounded=0;whiteSpace=wrap;html=1;comic=1;fillColor=#cdeb8b;strokeColor=#36393d;fontSize=16;fontFamily=Comic Sans MS;" vertex="1" parent="1">
          <mxGeometry x="96" y="-86" width="743" height="60" as="geometry" />
        </mxCell>
      </root>
    </mxGraphModel>
  </diagram>
</mxfile>
